<svg width="801" height="141" viewBox="0 0 801 141" fill="none" xmlns="http://www.w3.org/2000/svg">
<rect width="801" height="141" fill="#F5F5F5"/>
<path d="M0 70H71V116C71 129.807 59.8071 141 46 141H25C11.1929 141 0 129.807 0 116V70Z" fill="#D4AF37"/>
<path d="M71 70C71 52.4452 67.6549 35.5313 61.6279 22.611C55.6008 9.69078 47.3318 1.70751 38.46 0.243761C29.5883 -1.21998 20.7614 3.94266 13.7293 14.7083C6.69716 25.4739 1.97311 41.0566 0.493627 58.3672L4.21658 59.6044C5.53873 44.1347 9.76036 30.2093 16.0446 20.5886C22.3289 10.9679 30.217 6.35432 38.1452 7.66239C46.0735 8.97047 53.4631 16.1047 58.8492 27.6509C64.2352 39.197 67.2245 54.3122 67.2245 70H71Z" fill="#BFC4C4"/>
<path d="M71 70C71 53.0177 67.6826 36.65 61.7004 24.1164C55.7181 11.5829 47.504 3.79057 38.6738 2.2723C29.8435 0.754038 21.0363 5.61969 13.9844 15.9122C6.9325 26.2047 2.14639 41.1791 0.567493 57.8899L1.46574 58.2013C3.00404 41.9202 7.66707 27.3309 14.5376 17.303C21.4082 7.27515 29.989 2.53461 38.5922 4.01384C47.1954 5.49306 55.1983 13.085 61.0267 25.2963C66.8551 37.5076 70.0872 53.4544 70.0872 70H71Z" fill="url(#paint0_linear_0_1)"/>
<path d="M64 105.5C64 122.345 51.2401 136 35.5 136C19.7599 136 7 122.345 7 105.5C7 88.6553 19.7599 75 35.5 75C51.2401 75 64 88.6553 64 105.5Z" fill="#F6C324"/>
<path d="M27 119L31 103H39L43 119H27Z" fill="#111111"/>
<path d="M41 98C41 101.866 38.3137 105 35 105C31.6863 105 29 101.866 29 98C29 94.134 31.6863 91 35 91C38.3137 91 41 94.134 41 98Z" fill="#111111"/>
<path d="M86.625 42.5625C88.625 42.875 90.4375 43.1562 92.0625 43.4062C93.6875 43.5938 95.0938 43.75 96.2812 43.875C97.6562 44.0625 98.875 44.2188 99.9375 44.3438C101.25 44.5312 103.219 44.3125 105.844 43.6875C108.469 43 111.344 42.375 114.469 41.8125C117.656 41.1875 120.906 40.8438 124.219 40.7812C127.531 40.6562 130.562 41.25 133.312 42.5625C136.062 43.875 138.312 45.1875 140.062 46.5C141.812 47.8125 143.188 49.2188 144.188 50.7188C145.25 52.1562 146 53.6875 146.438 55.3125C146.875 56.9375 147.125 58.7188 147.188 60.6562C147.125 63.5312 146.438 66.3125 145.125 69C144.562 70.125 143.812 71.3125 142.875 72.5625C142 73.75 140.906 74.9062 139.594 76.0312C138.281 77.1562 136.719 78.2188 134.906 79.2188C133.156 80.2188 131.094 81.0938 128.719 81.8438C131.031 82.5312 132.938 83.3438 134.438 84.2812C136 85.2188 137.25 86.0938 138.188 86.9062C139.312 87.9062 140.156 88.875 140.719 89.8125C141.406 91.125 141.875 92.25 142.125 93.1875C142.375 94.125 142.531 95.0312 142.594 95.9062C142.719 96.7188 142.875 97.5625 143.062 98.4375C143.25 99.3125 143.656 100.312 144.281 101.438C144.781 102.312 145.375 103.219 146.062 104.156C146.688 104.969 147.406 105.844 148.219 106.781C149.094 107.719 150.156 108.625 151.406 109.5C149.656 109.562 148.031 109.594 146.531 109.594C145.094 109.594 143.844 109.594 142.781 109.594C141.531 109.594 140.344 109.562 139.219 109.5C138.094 109.438 136.688 109.406 135 109.406C133.562 109.406 131.719 109.406 129.469 109.406C127.281 109.406 124.625 109.438 121.5 109.5C122.875 108.438 124 107.375 124.875 106.312C125.75 105.25 126.438 104.281 126.938 103.406C127.5 102.406 127.906 101.438 128.156 100.5C128.469 98.8125 128.5 97.0625 128.25 95.25C128.062 93.6875 127.562 91.9688 126.75 90.0938C125.938 88.1562 124.625 86.2188 122.812 84.2812C121 84.5938 119.469 84.8438 118.219 85.0312C117.031 85.1562 116 85.2812 115.125 85.4062C114.125 85.5312 113.312 85.625 112.688 85.6875C112.125 85.75 111.5 85.8125 110.812 85.875C110.25 85.9375 109.625 86.0312 108.938 86.1562C108.312 86.2188 107.719 86.3125 107.156 86.4375C107.031 89.125 107.031 91.4688 107.156 93.4688C107.281 95.4062 107.438 97.0312 107.625 98.3438C107.875 99.9062 108.156 101.25 108.469 102.375C108.781 103.5 109.219 104.594 109.781 105.656C110.219 106.531 110.781 107.469 111.469 108.469C112.156 109.406 112.938 110.188 113.812 110.812C112.188 110.812 110.625 110.812 109.125 110.812C107.688 110.812 106.375 110.781 105.188 110.719C103.812 110.719 102.5 110.688 101.25 110.625C100 110.562 98.5938 110.531 97.0312 110.531C95.7188 110.531 94.1562 110.531 92.3438 110.531C90.5938 110.531 88.6875 110.562 86.625 110.625C88.25 108.938 89.5312 107.5 90.4688 106.312C91.4062 105.125 92.125 104.125 92.625 103.312C93.1875 102.438 93.5312 101.688 93.6562 101.062C93.7812 100.062 93.875 98.2812 93.9375 95.7188C94.0625 93.0938 94.1562 90.0938 94.2188 86.7188C94.2812 83.3438 94.3125 79.8125 94.3125 76.125C94.3125 72.4375 94.2812 69 94.2188 65.8125C94.1562 62.5625 94.0938 59.7812 94.0312 57.4688C93.9688 55.1562 93.9062 53.6875 93.8438 53.0625C93.6562 51.9375 93.25 50.8125 92.625 49.6875C92.125 48.6875 91.4062 47.5625 90.4688 46.3125C89.5312 45.0625 88.25 43.8125 86.625 42.5625ZM122.062 75.5625C122.688 75.1875 123.219 74.8125 123.656 74.4375C124.094 74.0625 124.469 73.4688 124.781 72.6562C125.094 71.7812 125.344 70.5625 125.531 69C125.781 67.4375 126.062 65.3125 126.375 62.625C126.625 59.9375 126.438 57.7188 125.812 55.9688C125.25 54.2188 124.469 52.8438 123.469 51.8438C122.531 50.7812 121.469 50.0625 120.281 49.6875C119.156 49.25 118.156 49.0312 117.281 49.0312C115.531 49.0312 113.812 49.5625 112.125 50.625C110.438 51.6875 109.156 53.125 108.281 54.9375C107.969 55.75 107.688 57.0938 107.438 58.9688C107.25 60.5938 107.125 62.8438 107.062 65.7188C107 68.5938 107.094 72.375 107.344 77.0625C109.719 77.4375 111.812 77.5938 113.625 77.5312C115.438 77.4062 116.969 77.1875 118.219 76.875C119.719 76.5625 121 76.125 122.062 75.5625Z" fill="black"/>
<path d="M173.438 95.9062C175.188 95.9062 176.812 95.7188 178.312 95.3438C179.562 95.0312 180.75 94.5312 181.875 93.8438C183.062 93.0938 183.844 92 184.219 90.5625C185.469 90.8125 186.531 91.0312 187.406 91.2188C188.281 91.3438 189.031 91.4688 189.656 91.5938C190.344 91.7812 190.938 91.9062 191.438 91.9688C191.938 92.0938 192.531 92.2188 193.219 92.3438C193.844 92.4688 194.594 92.625 195.469 92.8125C196.406 92.9375 197.5 93.125 198.75 93.375C197.812 93.25 196.844 93.3438 195.844 93.6562C194.906 93.9688 194 94.3125 193.125 94.6875C192.125 95.125 191.188 95.6562 190.312 96.2812C189.75 96.6562 189.094 97.2188 188.344 97.9688C187.656 98.7188 186.656 99.4375 185.344 100.125C184.031 100.812 182.281 101.406 180.094 101.906C177.969 102.344 175.219 102.5 171.844 102.375C167.781 102.25 164.375 101.531 161.625 100.219C158.875 98.8438 156.656 97.1875 154.969 95.25C153.281 93.25 152.062 91.0938 151.312 88.7812C150.562 86.4688 150.156 84.3125 150.094 82.3125C150.031 80.3125 150.625 78.2188 151.875 76.0312C153.125 73.8438 154.875 71.8438 157.125 70.0312C159.438 68.2188 162.219 66.75 165.469 65.625C168.719 64.4375 172.281 63.8438 176.156 63.8438C178.406 63.8438 180.469 64.125 182.344 64.6875C184.281 65.1875 186.031 65.875 187.594 66.75C189.219 67.625 190.625 68.625 191.812 69.75C193 70.8125 194 71.9062 194.812 73.0312C195.625 74.2188 196.312 75.4688 196.875 76.7812C197.375 77.9062 197.781 79.1875 198.094 80.625C198.406 82.0625 198.5 83.5312 198.375 85.0312C193.625 85.1562 189.781 85.25 186.844 85.3125C183.969 85.375 181.719 85.4062 180.094 85.4062H172.688C171.562 85.4062 170.094 85.4375 168.281 85.5C166.469 85.5625 164.25 85.6562 161.625 85.7812C161.938 88.2812 162.719 90.2188 163.969 91.5938C165.281 92.9062 166.656 93.9062 168.094 94.5938C169.719 95.3438 171.5 95.7812 173.438 95.9062ZM165 79.0312C167 79.1562 168.656 79.25 169.969 79.3125C171.344 79.375 172.469 79.4375 173.344 79.5C174.281 79.5625 175.031 79.5938 175.594 79.5938H177.938C179.5 79.5938 182.406 79.5 186.656 79.3125C186.469 76.5625 185.875 74.4688 184.875 73.0312C183.938 71.5938 182.938 70.5312 181.875 69.8438C180.625 69.0938 179.25 68.6562 177.75 68.5312C173.688 68.5938 170.656 69.4375 168.656 71.0625C166.719 72.6875 165.5 75.3438 165 79.0312Z" fill="black"/>
<path d="M195.938 59.3438C197 59.5312 198.094 59.6875 199.219 59.8125C200.281 59.875 201.25 59.9375 202.125 60C203.125 60.0625 204.094 60.0938 205.031 60.0938C205.969 60.0938 207.031 60.0625 208.219 60C209.219 59.9375 210.406 59.8438 211.781 59.7188C213.219 59.5938 214.781 59.4062 216.469 59.1562C215.469 59.7188 214.688 60.3125 214.125 60.9375C213.562 61.5625 213.125 62.125 212.812 62.625C212.438 63.25 212.188 63.8125 212.062 64.3125C211.938 64.8125 211.969 65.8438 212.156 67.4062C212.344 68.9688 212.594 70.7812 212.906 72.8438C213.281 74.9062 213.688 77.0625 214.125 79.3125C214.562 81.5625 215 83.625 215.438 85.5C215.938 87.375 216.375 88.9375 216.75 90.1875C217.188 91.4375 217.531 92.0312 217.781 91.9688C218.031 91.9688 218.406 91.3438 218.906 90.0938C219.469 88.8438 220.094 87.3125 220.781 85.5C221.469 83.625 222.188 81.5938 222.938 79.4062C223.688 77.1562 224.344 75.0625 224.906 73.125C225.469 71.1875 225.906 69.5625 226.219 68.25C226.594 66.875 226.75 66.0625 226.688 65.8125C226.5 65.5625 226.281 65.2188 226.031 64.7812C225.594 64.0938 224.625 62.9062 223.125 61.2188C224.938 61.3438 226.5 61.4688 227.812 61.5938C229.125 61.6562 230.188 61.75 231 61.875C231.938 62 232.688 62.0938 233.25 62.1562C233.812 62.2188 234.625 62.2188 235.688 62.1562C236.562 62.1562 237.719 62.125 239.156 62.0625C240.656 61.9375 242.5 61.75 244.688 61.5C243.062 62.4375 241.719 63.2812 240.656 64.0312C239.656 64.7188 238.875 65.3125 238.312 65.8125C237.625 66.4375 237.125 66.9688 236.812 67.4062C236.375 68.2188 235.594 70.1562 234.469 73.2188C233.969 74.5312 233.344 76.1562 232.594 78.0938C231.906 80.0312 231.062 82.375 230.062 85.125C229.125 87.8125 228 90.9688 226.688 94.5938C225.375 98.2188 223.906 102.375 222.281 107.062L213.188 108C212 104.062 211.031 100.781 210.281 98.1562C209.594 95.4688 209.031 93.3125 208.594 91.6875C208.094 89.8125 207.719 88.3438 207.469 87.2812C207.156 86.0938 206.781 84.375 206.344 82.125C205.906 79.8125 205.469 77.4688 205.031 75.0938C204.594 72.7188 204.156 70.5938 203.719 68.7188C203.281 66.7812 202.938 65.5938 202.688 65.1562C202.438 64.8438 202 64.4062 201.375 63.8438C200.875 63.3438 200.188 62.75 199.312 62.0625C198.438 61.3125 197.312 60.4062 195.938 59.3438Z" fill="black"/>
<path d="M262.125 69C263.75 69 265.438 69.3125 267.188 69.9375C268.938 70.5 270.625 71.25 272.25 72.1875C273.875 73.0625 275.344 74.0312 276.656 75.0938C278.031 76.0938 279.156 77.0625 280.031 78C281.594 79.6875 282.656 81.9688 283.219 84.8438C283.844 87.6562 283.969 90.5625 283.594 93.5625C283.219 96.5 282.344 99.2812 280.969 101.906C279.594 104.531 277.688 106.469 275.25 107.719C273.5 108.594 271.781 109.281 270.094 109.781C268.406 110.281 266.781 110.656 265.219 110.906C263.656 111.156 262.188 111.281 260.812 111.281C259.438 111.281 258.25 111.25 257.25 111.188C255.375 111.062 253.406 110.406 251.344 109.219C249.344 108.031 247.438 106.562 245.625 104.812C243.875 103.062 242.375 101.156 241.125 99.0938C239.875 96.9688 239.125 94.9688 238.875 93.0938C238.5 90.5312 238.438 87.8438 238.688 85.0312C238.938 82.2188 239.844 79.625 241.406 77.25C243.031 74.875 245.469 72.9062 248.719 71.3438C252.031 69.7812 256.5 69 262.125 69ZM259.031 105.375C259.719 105.5 260.656 105.344 261.844 104.906C263.031 104.406 264.188 103.625 265.312 102.562C266.5 101.5 267.531 100.156 268.406 98.5312C269.344 96.8438 269.906 94.8125 270.094 92.4375C270.281 90.125 270.281 88 270.094 86.0625C269.969 84.125 269.688 82.4375 269.25 81C268.812 79.5 268.312 78.2812 267.75 77.3438C267.188 76.4062 266.594 75.75 265.969 75.375C264.906 74.8125 263.625 74.375 262.125 74.0625C260.625 73.6875 259.344 73.75 258.281 74.25C257.781 74.5 257.156 75.0312 256.406 75.8438C255.656 76.6562 254.906 77.6875 254.156 78.9375C253.406 80.125 252.719 81.5 252.094 83.0625C251.531 84.625 251.125 86.25 250.875 87.9375C250.625 89.625 250.562 91.4375 250.688 93.375C250.875 95.3125 251.281 97.1562 251.906 98.9062C252.531 100.594 253.406 102.062 254.531 103.312C255.719 104.5 257.219 105.188 259.031 105.375Z" fill="black"/>
<path d="M378.188 42.375C377.312 44.375 376.531 46.125 375.844 47.625C375.156 49.125 374.562 50.4062 374.062 51.4688C373.5 52.6562 373.031 53.7188 372.656 54.6562C372.344 55.3438 371.938 56.2812 371.438 57.4688C370.938 58.5312 370.312 59.9375 369.562 61.6875C368.875 63.375 367.969 65.5625 366.844 68.25C366.281 65.9375 365.594 63.9062 364.781 62.1562C363.969 60.4062 363.094 58.875 362.156 57.5625C361.219 56.25 360.219 55.1875 359.156 54.375C358.156 53.5 357.156 52.7812 356.156 52.2188C353.844 50.9688 351.406 50.2812 348.844 50.1562C345.469 50.3438 342.812 50.9062 340.875 51.8438C339 52.7188 337.625 53.75 336.75 54.9375C335.875 56.0625 335.406 57.25 335.344 58.5C335.281 59.6875 335.438 60.6875 335.812 61.5C336.125 62.25 337.219 63.125 339.094 64.125C341.031 65.125 343.344 66.2812 346.031 67.5938C348.781 68.8438 351.719 70.2812 354.844 71.9062C357.969 73.4688 360.844 75.2188 363.469 77.1562C366.156 79.0312 368.406 81.0938 370.219 83.3438C372.094 85.5312 373.125 87.875 373.312 90.375C373.5 93.5625 373.469 96.4375 373.219 99C372.969 101.562 372.094 103.75 370.594 105.562C369.094 107.375 366.75 108.812 363.562 109.875C360.438 110.938 356.094 111.594 350.531 111.844C344.781 112.094 340.062 111.781 336.375 110.906C332.688 110.031 329.688 108.844 327.375 107.344C325.125 105.844 323.438 104.188 322.312 102.375C321.25 100.562 320.469 98.8438 319.969 97.2188C319.469 95.5312 319.125 94.0938 318.938 92.9062C318.75 91.6562 318.438 90.9062 318 90.6562C317.5 90.3438 317 90.0625 316.5 89.8125C316.062 89.5625 315.594 89.3438 315.094 89.1562C314.594 88.9062 314.094 88.6875 313.594 88.5L340.875 84.0938C339.312 85.3438 338.094 86.5 337.219 87.5625C336.406 88.625 335.781 89.5625 335.344 90.375C334.844 91.3125 334.5 92.1875 334.312 93C334.188 93.875 334.469 94.9688 335.156 96.2812C335.844 97.5938 336.781 98.875 337.969 100.125C339.219 101.312 340.656 102.312 342.281 103.125C343.906 103.938 345.594 104.281 347.344 104.156C349.531 103.969 351.312 103.438 352.688 102.562C354.062 101.625 355.094 100.469 355.781 99.0938C356.531 97.7188 356.969 96.2188 357.094 94.5938C357.219 92.9688 357.062 91.375 356.625 89.8125C356.25 88.1875 355.625 86.6875 354.75 85.3125C353.875 83.875 352.844 82.6875 351.656 81.75C350.594 81 348.938 80.2812 346.688 79.5938C344.5 78.9062 342.031 78.1562 339.281 77.3438C336.594 76.5312 333.812 75.5938 330.938 74.5312C328.125 73.4688 325.562 72.1562 323.25 70.5938C321 69.0312 319.188 67.1875 317.812 65.0625C316.5 62.9375 316 60.375 316.312 57.375C316.562 54.8125 317.375 52.6875 318.75 51C320.188 49.25 321.969 47.875 324.094 46.875C326.281 45.8125 328.688 45.0312 331.312 44.5312C334 44.0312 336.719 43.75 339.469 43.6875C342.281 43.5625 345.031 43.5938 347.719 43.7812C350.469 43.9688 352.938 44.1875 355.125 44.4375C357.312 44.6875 359.156 44.9375 360.656 45.1875C362.219 45.375 363.188 45.5 363.562 45.5625C365.188 45.6875 366.812 45.6562 368.438 45.4688C369.875 45.3438 371.438 45.0625 373.125 44.625C374.875 44.125 376.562 43.375 378.188 42.375Z" fill="black"/>
<path d="M377.719 66.5625C379.156 66.4375 380.375 66.3125 381.375 66.1875C382.438 66.0625 383.312 65.9375 384 65.8125C384.812 65.6875 385.5 65.5625 386.062 65.4375C386.625 65.375 387.25 65.25 387.938 65.0625C388.562 64.9375 389.25 64.7812 390 64.5938C390.812 64.3438 391.688 64.0625 392.625 63.75L392.062 75.6562C393.438 73.4688 395.031 71.8125 396.844 70.6875C398.656 69.5 400.375 68.625 402 68.0625C403.938 67.375 405.875 66.9688 407.812 66.8438C409.812 66.9062 411.656 67.2188 413.344 67.7812C414.781 68.2812 416.219 69.0625 417.656 70.125C419.156 71.1875 420.312 72.75 421.125 74.8125C423.25 72.625 425.344 70.9375 427.406 69.75C429.531 68.5 431.406 67.5625 433.031 66.9375C434.969 66.25 436.781 65.8438 438.469 65.7188C440.719 65.6562 442.781 66.0312 444.656 66.8438C446.594 67.6562 448.281 68.6875 449.719 69.9375C451.156 71.125 452.312 72.4062 453.188 73.7812C454.062 75.0938 454.562 76.25 454.688 77.25C454.875 78.625 454.781 80.4062 454.406 82.5938C454.031 84.7188 453.594 86.9062 453.094 89.1562C452.594 91.3438 452.125 93.375 451.688 95.25C451.312 97.0625 451.156 98.3438 451.219 99.0938C451.406 99.7188 451.844 100.469 452.531 101.344C453.156 102.094 454.062 103.031 455.25 104.156C456.5 105.219 458.281 106.469 460.594 107.906C458.594 107.844 456.812 107.781 455.25 107.719C453.75 107.656 452.469 107.562 451.406 107.438C450.156 107.312 449.062 107.219 448.125 107.156C447.375 107.156 446.469 107.094 445.406 106.969C444.531 106.906 443.375 106.812 441.938 106.688C440.562 106.562 438.969 106.438 437.156 106.312C437.844 106.125 438.406 105.781 438.844 105.281C439.281 104.719 439.656 104.188 439.969 103.688C440.281 103.062 440.531 102.375 440.719 101.625C440.844 101 440.969 100 441.094 98.625C441.219 97.25 441.312 95.6875 441.375 93.9375C441.5 92.1875 441.562 90.3438 441.562 88.4062C441.625 86.4688 441.625 84.625 441.562 82.875C441.5 81.125 441.375 79.5312 441.188 78.0938C441 76.6562 440.75 75.5625 440.438 74.8125C440.188 74.25 439.75 73.8125 439.125 73.5C438.5 73.125 437.781 72.9062 436.969 72.8438C436.156 72.7188 435.344 72.75 434.531 72.9375C433.719 73.0625 433 73.3125 432.375 73.6875C431.812 74.125 431.062 74.7188 430.125 75.4688C429.312 76.1562 428.25 77.0938 426.938 78.2812C425.625 79.4688 423.969 80.9688 421.969 82.7812C421.781 86.7188 421.625 89.9062 421.5 92.3438C421.438 94.7188 421.375 96.5312 421.312 97.7812C421.25 99.2812 421.219 100.312 421.219 100.875C421.156 101.375 421.188 101.844 421.312 102.281C421.438 103.219 421.812 104.094 422.438 104.906C421.688 104.719 420.875 104.594 420 104.531C419.188 104.469 418.438 104.406 417.75 104.344C416.938 104.281 416.125 104.25 415.312 104.25C414.625 104.25 413.875 104.281 413.062 104.344C412.375 104.406 411.531 104.5 410.531 104.625C409.531 104.688 408.438 104.781 407.25 104.906C407.75 104.594 408.156 104.219 408.469 103.781C408.781 103.344 409.031 102.938 409.219 102.562C409.469 102.125 409.656 101.719 409.781 101.344C409.844 100.969 409.969 100.062 410.156 98.625C410.344 97.125 410.469 95.375 410.531 93.375C410.594 91.375 410.594 89.2812 410.531 87.0938C410.469 84.8438 410.25 82.8125 409.875 81C409.5 79.125 408.906 77.5938 408.094 76.4062C407.344 75.2188 406.344 74.6875 405.094 74.8125C403.594 74.9375 402.062 75.3125 400.5 75.9375C399.188 76.4375 397.781 77.1875 396.281 78.1875C394.781 79.1875 393.375 80.5312 392.062 82.2188C391.812 86.9062 391.656 90.625 391.594 93.375C391.594 96.125 391.625 98.2188 391.688 99.6562C391.75 101.344 391.812 102.5 391.875 103.125C391.938 103.562 392.094 104 392.344 104.438C392.531 104.812 392.75 105.25 393 105.75C393.312 106.25 393.656 106.719 394.031 107.156L379.125 106.406C379.625 106.156 380.062 105.844 380.438 105.469C380.812 105.031 381.125 104.594 381.375 104.156C381.625 103.656 381.875 103.156 382.125 102.656C382.312 102.219 382.469 101.188 382.594 99.5625C382.781 97.9375 382.938 96.0312 383.062 93.8438C383.188 91.5938 383.281 89.25 383.344 86.8125C383.469 84.3125 383.531 82 383.531 79.875C383.594 77.6875 383.625 75.8438 383.625 74.3438C383.625 72.7812 383.594 71.8438 383.531 71.5312C383.344 70.9062 383 70.25 382.5 69.5625C382.062 69.0625 381.469 68.5312 380.719 67.9688C379.969 67.3438 378.969 66.875 377.719 66.5625Z" fill="black"/>
<path d="M468.094 73.0312C468.406 72.6562 468.594 71.9688 468.656 70.9688C468.781 69.9062 469.031 68.7188 469.406 67.4062C469.844 66.0938 470.562 64.7188 471.562 63.2812C472.562 61.8438 474.188 60.5 476.438 59.25C478.625 58 480.75 57.25 482.812 57C484.875 56.75 486.844 56.8438 488.719 57.2812C490.594 57.7188 492.344 58.4062 493.969 59.3438C495.656 60.2812 497.188 61.3125 498.562 62.4375C499.5 63.1875 500.25 64.2812 500.812 65.7188C501.375 67.0938 501.812 68.6562 502.125 70.4062C502.438 72.1562 502.656 74 502.781 75.9375C502.969 77.8125 503.094 79.6562 503.156 81.4688C503.219 83.2188 503.25 84.8438 503.25 86.3438C503.312 87.7812 503.438 88.9688 503.625 89.9062C503.875 91.2812 504.312 92.4688 504.938 93.4688C505.562 94.4062 506.25 95.2188 507 95.9062C507.75 96.5312 508.5 97.0312 509.25 97.4062C510 97.7812 510.656 98.0625 511.219 98.25C511.594 98.4375 511.938 98.5625 512.25 98.625C512.875 98.875 513.312 98.875 513.562 98.625C513.188 99.5 512.844 100.25 512.531 100.875C512.219 101.5 511.969 102.031 511.781 102.469C511.531 102.969 511.312 103.375 511.125 103.688C510.938 104.062 510.719 104.406 510.469 104.719C510.281 105.031 510.031 105.375 509.719 105.75C509.406 106.125 509.094 106.531 508.781 106.969C507.969 106.656 507.188 106.281 506.438 105.844C505.75 105.406 505.125 105 504.562 104.625C503.875 104.188 503.25 103.75 502.688 103.312C502.125 102.875 501.594 102.375 501.094 101.812C500.656 101.312 500.188 100.781 499.688 100.219C499.25 99.6562 498.875 99.0312 498.562 98.3438C498.188 99.1562 497.281 100.312 495.844 101.812C494.469 103.312 492.656 104.688 490.406 105.938C488.156 107.125 485.531 107.969 482.531 108.469C479.594 108.969 476.344 108.625 472.781 107.438C471.219 106.938 469.75 106.219 468.375 105.281C467 104.281 465.812 103.094 464.812 101.719C463.875 100.344 463.188 98.7812 462.75 97.0312C462.375 95.2188 462.406 93.2188 462.844 91.0312C463.281 88.8438 464.062 87 465.188 85.5C466.312 84 467.656 82.7812 469.219 81.8438C470.781 80.9062 472.531 80.1875 474.469 79.6875C476.406 79.1875 478.406 78.8438 480.469 78.6562C482.094 78.5938 483.719 78.6875 485.344 78.9375C486.719 79.1875 488.156 79.6562 489.656 80.3438C491.156 80.9688 492.438 81.9375 493.5 83.25C493.438 79.9375 493.312 77.3125 493.125 75.375C493 73.375 492.875 71.8438 492.75 70.7812C492.5 69.5312 492.281 68.6562 492.094 68.1562C491.781 67.7188 491.438 67.2188 491.062 66.6562C490.75 66.0938 490.344 65.5938 489.844 65.1562C489.344 64.6562 488.719 64.25 487.969 63.9375C487.219 63.625 486.344 63.5 485.344 63.5625C484.281 63.625 483.438 63.9062 482.812 64.4062C482.188 64.9062 481.688 65.5 481.312 66.1875C481 66.8125 480.812 67.5 480.75 68.25C480.688 69 480.719 69.6562 480.844 70.2188C480.969 70.5938 481.156 71 481.406 71.4375C481.656 71.8125 482 72.2188 482.438 72.6562C482.875 73.0938 483.469 73.4688 484.219 73.7812C482.781 73.9688 481.5 74.125 480.375 74.25C479.25 74.3125 478.281 74.4062 477.469 74.5312C476.531 74.6562 475.719 74.75 475.031 74.8125C474.344 74.875 473.531 75 472.594 75.1875C471.781 75.3125 470.781 75.4688 469.594 75.6562C468.406 75.8438 467.031 76.0938 465.469 76.4062C465.844 75.9688 466.188 75.5625 466.5 75.1875C466.812 74.75 467.094 74.375 467.344 74.0625C467.594 73.6875 467.844 73.3438 468.094 73.0312ZM482.156 84.1875C481.031 84.25 479.906 84.5312 478.781 85.0312C477.656 85.4688 476.656 86.125 475.781 87C474.906 87.8125 474.156 88.7812 473.531 89.9062C472.969 90.9688 472.688 92.1562 472.688 93.4688C472.688 94.7812 473 95.9375 473.625 96.9375C474.312 97.875 475.188 98.6562 476.25 99.2812C477.375 99.9062 478.562 100.281 479.812 100.406C481.125 100.531 482.406 100.406 483.656 100.031C484.844 99.5938 485.969 98.9062 487.031 97.9688C488.094 96.9688 489 95.9062 489.75 94.7812C490.5 93.5938 491.031 92.4375 491.344 91.3125C491.656 90.125 491.688 89.1562 491.438 88.4062C490.938 86.7812 489.812 85.6562 488.062 85.0312C486.312 84.3438 484.344 84.0625 482.156 84.1875Z" fill="black"/>
<path d="M511.688 66.0938C512.875 66.1562 513.938 66.1875 514.875 66.1875C515.875 66.125 516.719 66.0625 517.406 66C518.219 65.9375 518.938 65.875 519.562 65.8125C520.5 65.6875 521.469 65.5312 522.469 65.3438C523.344 65.2188 524.25 65.0625 525.188 64.875C526.188 64.625 527.156 64.3438 528.094 64.0312C527.719 64.9688 527.406 65.7812 527.156 66.4688C526.906 67.1562 526.719 67.75 526.594 68.25C526.406 68.8125 526.312 69.2812 526.312 69.6562C526.25 70.0938 526.219 70.625 526.219 71.25C526.156 72.3125 526.156 74.0312 526.219 76.4062C529.469 73.5938 532.188 71.4062 534.375 69.8438C536.625 68.2812 538.406 67.0625 539.719 66.1875C541.281 65.1875 542.5 64.5312 543.375 64.2188C545.688 63.8438 547.719 64.375 549.469 65.8125C550.219 66.4375 550.938 67.2812 551.625 68.3438C552.312 69.3438 552.906 70.6875 553.406 72.375C553.906 74.0625 554.281 76.0938 554.531 78.4688C554.781 80.7812 554.812 83.5625 554.625 86.8125C553.312 86.9375 552.125 87.0625 551.062 87.1875C550.062 87.3125 549.219 87.4062 548.531 87.4688C547.719 87.5938 546.969 87.6562 546.281 87.6562L543.75 87.9375C542.875 88.0625 541.781 88.1875 540.469 88.3125C539.219 88.375 537.688 88.5 535.875 88.6875C538.5 86.5625 540.188 84.7188 540.938 83.1562C541.75 81.5312 542.094 80.1875 541.969 79.125C541.844 77.9375 541.281 76.9062 540.281 76.0312C539.094 75.3438 537.812 75.0938 536.438 75.2812C535.25 75.4062 533.875 75.9375 532.312 76.875C530.75 77.8125 529.094 79.5625 527.344 82.125C527.469 86.125 527.594 89.4375 527.719 92.0625C527.906 94.6875 528.062 96.8125 528.188 98.4375C528.375 100.312 528.531 101.781 528.656 102.844C528.844 103.781 529.219 104.781 529.781 105.844C530.219 106.719 530.844 107.688 531.656 108.75C532.469 109.812 533.531 110.875 534.844 111.938C532.094 111.812 529.844 111.812 528.094 111.938C527.031 112 526.094 112.062 525.281 112.125C524.406 112.25 523.469 112.375 522.469 112.5C521.594 112.625 520.562 112.75 519.375 112.875C518.25 113.062 517 113.25 515.625 113.438C516.125 112.75 516.531 111.938 516.844 111C517.156 110.125 517.406 109.281 517.594 108.469C517.844 107.531 518.031 106.562 518.156 105.562C518.219 104.688 518.25 103.375 518.25 101.625C518.312 99.875 518.281 97.9062 518.156 95.7188C518.094 93.4688 518 91.1562 517.875 88.7812C517.75 86.3438 517.594 84.0625 517.406 81.9375C517.219 79.8125 517 77.9688 516.75 76.4062C516.562 74.7812 516.344 73.6562 516.094 73.0312C515.781 72.2812 515.406 71.5312 514.969 70.7812C514.594 70.0938 514.125 69.375 513.562 68.625C513 67.8125 512.375 66.9688 511.688 66.0938Z" fill="black"/>
<path d="M557.438 51.9375C559.312 52.125 560.875 52.2812 562.125 52.4062C563.438 52.5312 564.5 52.625 565.312 52.6875C566.25 52.75 567 52.7812 567.562 52.7812C568.125 52.8438 568.875 52.8438 569.812 52.7812C570.625 52.7188 571.688 52.6562 573 52.5938C574.312 52.4688 575.969 52.2812 577.969 52.0312C577.531 52.6562 577.188 53.2188 576.938 53.7188C576.688 54.1562 576.469 54.5625 576.281 54.9375L575.719 56.0625C575.594 56.4375 575.469 56.8125 575.344 57.1875C575.219 57.5 575.094 57.875 574.969 58.3125C574.906 58.75 574.844 59.2188 574.781 59.7188H589.219L587.906 67.3125L574.688 66.5625C574.375 69.75 574.156 72.2188 574.031 73.9688C573.906 75.7188 573.781 77 573.656 77.8125L573.469 79.5C573.281 81.875 573.094 84.4688 572.906 87.2812C572.719 90.0312 572.656 92.5938 572.719 94.9688C572.781 97.3438 573 99.3438 573.375 100.969C573.75 102.531 574.406 103.312 575.344 103.312C576.281 103.312 577.156 103.062 577.969 102.562C578.781 102.062 579.469 101.469 580.031 100.781C580.656 100.094 581.125 99.4062 581.438 98.7188C581.75 97.9688 581.906 97.4062 581.906 97.0312C581.906 96.6562 581.812 96.2188 581.625 95.7188C581.312 94.7812 580.75 93.5938 579.938 92.1562C581.75 92.5938 583.344 93.0312 584.719 93.4688C585.406 93.7188 586.031 93.9688 586.594 94.2188C587.219 94.4688 587.938 94.75 588.75 95.0625C589.438 95.375 590.312 95.75 591.375 96.1875C592.438 96.625 593.688 97.1562 595.125 97.7812C593.75 98.0312 592.75 98.4375 592.125 99C591.75 99.25 591.469 99.5312 591.281 99.8438C590.844 100.531 590.344 101.469 589.781 102.656C589.219 103.781 588.375 104.906 587.25 106.031C586.125 107.156 584.594 108.156 582.656 109.031C580.781 109.906 578.25 110.406 575.062 110.531C571.75 110.656 569.219 110.094 567.469 108.844C565.781 107.594 564.531 106.156 563.719 104.531C562.969 102.844 562.531 101.188 562.406 99.5625C562.281 97.9375 562.188 96.8438 562.125 96.2812C562.062 95.7188 562.062 94.3125 562.125 92.0625C562.188 89.8125 562.281 87.3438 562.406 84.6562C562.531 81.9062 562.656 79.2812 562.781 76.7812C562.906 74.2188 562.969 72.3438 562.969 71.1562C562.969 70.5312 563 69.875 563.062 69.1875C563.062 68.625 563.062 68.0312 563.062 67.4062C563.125 66.7188 563.156 66.0625 563.156 65.4375L549.562 65.3438L549 60L562.688 60.375C562.562 59.6875 562.406 59.0625 562.219 58.5C562.094 57.875 561.969 57.375 561.844 57C561.656 56.5625 561.469 56.1875 561.281 55.875C561.031 55.5625 560.75 55.2188 560.438 54.8438C560.125 54.5312 559.719 54.125 559.219 53.625C558.719 53.125 558.125 52.5625 557.438 51.9375Z" fill="black"/>
<path d="M591.75 43.0312C593.562 43.3438 595.156 43.5625 596.531 43.6875C597.969 43.8125 599.156 43.9062 600.094 43.9688C601.219 44.0312 602.188 44.0625 603 44.0625C603.812 44.0625 604.969 44 606.469 43.875C607.719 43.75 609.344 43.5938 611.344 43.4062C613.406 43.2188 615.938 42.9062 618.938 42.4688C618.062 42.7188 617.25 43.4375 616.5 44.625C615.812 45.75 615.188 46.9688 614.625 48.2812C613.938 49.8438 613.344 51.5625 612.844 53.4375C612.406 55.125 611.844 57.4375 611.156 60.375C610.531 63.3125 609.906 66.5 609.281 69.9375C608.719 73.375 608.281 76.875 607.969 80.4375C607.656 83.9375 607.594 87.1562 607.781 90.0938C608.031 93.0312 608.625 95.4688 609.562 97.4062C610.5 99.2812 611.938 100.281 613.875 100.406C616.812 100.656 619.25 100.688 621.188 100.5C623.188 100.25 624.812 99.9062 626.062 99.4688C627.312 99.0312 628.281 98.5312 628.969 97.9688C629.656 97.3438 630.188 96.75 630.562 96.1875C631.562 94.75 632.594 92.9062 633.656 90.6562C634.719 88.4062 635.656 86.25 636.469 84.1875C637.344 82.125 638.062 80.375 638.625 78.9375C639.188 77.5 639.469 76.8125 639.469 76.875C639.469 77 639.438 77.7188 639.375 79.0312C639.375 80.2812 639.344 81.8125 639.281 83.625C639.281 85.375 639.25 87.2188 639.188 89.1562C639.188 91.0938 639.156 92.75 639.094 94.125C639.031 95.25 638.969 96.5 638.906 97.875C638.844 99.0625 638.781 100.469 638.719 102.094C638.719 103.719 638.656 105.5 638.531 107.438C635.906 107.25 633.406 107.125 631.031 107.062C628.656 107 626.562 106.969 624.75 106.969C622.625 106.969 620.656 107 618.844 107.062C616.906 107.125 614.656 107.219 612.094 107.344C609.906 107.469 607.188 107.625 603.938 107.812C600.688 107.938 596.938 108.125 592.688 108.375C593.188 107.5 593.594 106.688 593.906 105.938C594.281 105.188 594.562 104.562 594.75 104.062C595 103.438 595.156 102.906 595.219 102.469C595.594 100.469 595.906 97.9375 596.156 94.875C596.406 91.75 596.594 88.4375 596.719 84.9375C596.906 81.4375 597 77.875 597 74.25C597.062 70.5625 597.062 67.1562 597 64.0312C596.938 60.9062 596.812 58.1875 596.625 55.875C596.5 53.5625 596.312 51.9688 596.062 51.0938C595.75 50.0938 595.375 49.0938 594.938 48.0938C594.562 47.2188 594.094 46.3438 593.531 45.4688C593.031 44.5312 592.438 43.7188 591.75 43.0312Z" fill="black"/>
<path d="M669.844 69C671.469 69 673.156 69.3125 674.906 69.9375C676.656 70.5 678.344 71.25 679.969 72.1875C681.594 73.0625 683.062 74.0312 684.375 75.0938C685.75 76.0938 686.875 77.0625 687.75 78C689.312 79.6875 690.375 81.9688 690.938 84.8438C691.562 87.6562 691.688 90.5625 691.312 93.5625C690.938 96.5 690.062 99.2812 688.688 101.906C687.312 104.531 685.406 106.469 682.969 107.719C681.219 108.594 679.5 109.281 677.812 109.781C676.125 110.281 674.5 110.656 672.938 110.906C671.375 111.156 669.906 111.281 668.531 111.281C667.156 111.281 665.969 111.25 664.969 111.188C663.094 111.062 661.125 110.406 659.062 109.219C657.062 108.031 655.156 106.562 653.344 104.812C651.594 103.062 650.094 101.156 648.844 99.0938C647.594 96.9688 646.844 94.9688 646.594 93.0938C646.219 90.5312 646.156 87.8438 646.406 85.0312C646.656 82.2188 647.562 79.625 649.125 77.25C650.75 74.875 653.188 72.9062 656.438 71.3438C659.75 69.7812 664.219 69 669.844 69ZM666.75 105.375C667.438 105.5 668.375 105.344 669.562 104.906C670.75 104.406 671.906 103.625 673.031 102.562C674.219 101.5 675.25 100.156 676.125 98.5312C677.062 96.8438 677.625 94.8125 677.812 92.4375C678 90.125 678 88 677.812 86.0625C677.688 84.125 677.406 82.4375 676.969 81C676.531 79.5 676.031 78.2812 675.469 77.3438C674.906 76.4062 674.312 75.75 673.688 75.375C672.625 74.8125 671.344 74.375 669.844 74.0625C668.344 73.6875 667.062 73.75 666 74.25C665.5 74.5 664.875 75.0312 664.125 75.8438C663.375 76.6562 662.625 77.6875 661.875 78.9375C661.125 80.125 660.438 81.5 659.812 83.0625C659.25 84.625 658.844 86.25 658.594 87.9375C658.344 89.625 658.281 91.4375 658.406 93.375C658.594 95.3125 659 97.1562 659.625 98.9062C660.25 100.594 661.125 102.062 662.25 103.312C663.438 104.5 664.938 105.188 666.75 105.375Z" fill="black"/>
<path d="M748.219 77.7188C747.469 77.5938 746.531 77.5 745.406 77.4375C744.344 77.375 743.312 77.3438 742.312 77.3438C741.188 77.3438 740 77.375 738.75 77.4375C737.438 77.5 736.125 77.5625 734.812 77.625C733.688 77.6875 732.406 77.7812 730.969 77.9062C729.594 77.9688 728.25 78.0625 726.938 78.1875C727.438 77.9375 727.875 77.5938 728.25 77.1562C728.688 76.7188 729.062 76.2812 729.375 75.8438C729.688 75.3438 729.969 74.8125 730.219 74.25C730.531 73.3125 730.5 72.1875 730.125 70.875C729.75 69.5 729.062 68.25 728.062 67.125C727.125 66 725.906 65.125 724.406 64.5C722.969 63.8125 721.375 63.6562 719.625 64.0312C717.75 64.4688 716.062 65.125 714.562 66C713.125 66.875 711.906 68.0938 710.906 69.6562C709.969 71.1562 709.281 73.0312 708.844 75.2812C708.469 77.4688 708.375 80.0938 708.562 83.1562C708.812 86.9688 709.438 90 710.438 92.25C711.438 94.5 712.656 96.1875 714.094 97.3125C715.531 98.4375 717.094 99.125 718.781 99.375C720.531 99.5625 722.25 99.5625 723.938 99.375C725.125 99.125 726.219 98.5938 727.219 97.7812C728.031 97.0938 728.781 96.0938 729.469 94.7812C730.156 93.4688 730.469 91.6562 730.406 89.3438L741.844 88.875C740.531 92.5625 738.938 95.5 737.062 97.6875C735.188 99.8125 733.375 101.469 731.625 102.656C729.562 104.031 727.5 104.969 725.438 105.469C722.875 105.906 720.594 106.094 718.594 106.031C716.594 105.906 714.781 105.594 713.156 105.094C711.531 104.594 710.031 103.969 708.656 103.219C707.281 102.469 705.969 101.656 704.719 100.781C703.906 100.219 703 99.2812 702 97.9688C701 96.6562 700.062 95.0938 699.188 93.2812C698.312 91.4062 697.594 89.3438 697.031 87.0938C696.469 84.8438 696.25 82.5312 696.375 80.1562C696.5 77.7188 697.062 75.2812 698.062 72.8438C699.062 70.4062 700.656 68.0625 702.844 65.8125C706.156 62.4375 709.688 60.25 713.438 59.25C717.25 58.1875 720.844 57.9062 724.219 58.4062C727.594 58.8438 730.594 59.8125 733.219 61.3125C735.844 62.8125 737.688 64.4375 738.75 66.1875C739.812 67.9375 740.594 69.2812 741.094 70.2188C741.656 71.0938 742.062 71.7812 742.312 72.2812C742.625 72.7188 742.875 73.0625 743.062 73.3125C743.312 73.5 743.656 73.7812 744.094 74.1562C744.406 74.4688 744.781 74.8125 745.219 75.1875C745.594 75.5 746.031 75.875 746.531 76.3125C747.031 76.75 747.594 77.2188 748.219 77.7188Z" fill="black"/>
<path d="M745.875 43.4062C746.562 43.7188 747.375 43.9375 748.312 44.0625C749.312 44.1875 750.25 44.25 751.125 44.25C752.188 44.25 753.281 44.2188 754.406 44.1562C755.531 44.0938 756.906 43.9688 758.531 43.7812C759.844 43.6562 761.469 43.5 763.406 43.3125C765.344 43.125 767.5 42.875 769.875 42.5625C769 43 768.25 43.4688 767.625 43.9688C767 44.4688 766.469 44.9688 766.031 45.4688C765.531 46.0312 765.125 46.5938 764.812 47.1562C764.375 47.9062 763.781 49.2188 763.031 51.0938C762.344 52.9062 761.625 54.9375 760.875 57.1875C760.188 59.4375 759.562 61.7188 759 64.0312C758.5 66.3438 758.219 68.3125 758.156 69.9375C758.094 71.3125 758.031 72.875 757.969 74.625C757.906 76.125 757.844 77.9688 757.781 80.1562C757.719 82.3438 757.656 84.8438 757.594 87.6562C762.094 84.4062 765.562 81.8125 768 79.875C770.438 77.875 772.219 76.3438 773.344 75.2812C774.656 74.0938 775.438 73.25 775.688 72.75C775.625 72.375 775.469 71.9688 775.219 71.5312C774.906 71.1562 774.469 70.7188 773.906 70.2188C773.344 69.7188 772.5 69.1562 771.375 68.5312C773 68.7188 774.406 68.8438 775.594 68.9062C776.844 68.9688 777.906 69.0312 778.781 69.0938C779.781 69.1562 780.656 69.1562 781.406 69.0938C782.219 69.0938 783.219 69.0625 784.406 69C786.469 68.9375 789.656 68.8438 793.969 68.7188C789.781 70.9062 786.469 72.7812 784.031 74.3438C782.656 75.2188 781.438 76.0312 780.375 76.7812C779.312 77.5938 778.219 78.4375 777.094 79.3125C776.094 80.0625 774.938 80.9375 773.625 81.9375C772.375 82.9375 771.125 84 769.875 85.125C772.062 88.6875 773.969 91.625 775.594 93.9375C777.281 96.25 778.688 98.125 779.812 99.5625C781.125 101.25 782.281 102.594 783.281 103.594C784.281 104.531 785.594 105.594 787.219 106.781C788.594 107.844 790.375 109.094 792.562 110.531C794.812 111.906 797.531 113.5 800.719 115.312C799.094 115 797.531 114.781 796.031 114.656C794.531 114.594 793.25 114.594 792.188 114.656C790.875 114.719 789.688 114.844 788.625 115.031C787.5 115.281 786.25 115.594 784.875 115.969C783.688 116.281 782.281 116.688 780.656 117.188C779.094 117.75 777.375 118.469 775.5 119.344C776.688 118.469 777.562 117.625 778.125 116.812C778.75 116.062 779.188 115.438 779.438 114.938C779.688 114.312 779.781 113.781 779.719 113.344C779.406 112.719 778.688 111.438 777.562 109.5C776.5 107.875 774.938 105.5 772.875 102.375C770.812 99.25 767.875 95 764.062 89.625C763.875 89.6875 763.562 89.875 763.125 90.1875C762.75 90.5 762.188 90.9375 761.438 91.5C760.688 92 759.688 92.75 758.438 93.75L760.969 110.156C760.406 110.406 759.781 110.625 759.094 110.812C758.469 111 757.875 111.156 757.312 111.281C756.625 111.469 755.938 111.594 755.25 111.656C754.562 111.719 753.75 111.844 752.812 112.031C752 112.156 751.031 112.312 749.906 112.5C748.781 112.75 747.5 113.031 746.062 113.344C746.875 112.781 747.531 112.125 748.031 111.375C748.531 110.688 748.938 110.031 749.25 109.406C749.562 108.719 749.844 108 750.094 107.25C750.219 106.625 750.344 105 750.469 102.375C750.656 99.75 750.812 96.625 750.938 93C751.062 89.3125 751.156 85.375 751.219 81.1875C751.344 77 751.406 73.0625 751.406 69.375C751.406 65.625 751.375 62.375 751.312 59.625C751.25 56.8125 751.125 55 750.938 54.1875C750.625 53.1875 750.25 52.125 749.812 51C749.438 50 748.906 48.875 748.219 47.625C747.594 46.3125 746.812 44.9062 745.875 43.4062Z" fill="black"/>
<defs>
<linearGradient id="paint0_linear_0_1" x1="0" y1="70.4999" x2="800.719" y2="70.4999" gradientUnits="userSpaceOnUse">
<stop stop-color="white"/>
<stop offset="0.25" stop-color="#999999"/>
</linearGradient>
</defs>
</svg>
